<svg width="28" height="28" viewBox="0 0 28 28" fill="none" xmlns="http://www.w3.org/2000/svg">
<path d="M12.4 8.73171H15.6C15.6 7.8696 14.8837 7.17073 14 7.17073C13.1163 7.17073 12.4 7.8696 12.4 8.73171ZM11.2 8.73171C11.2 7.22302 12.4536 6 14 6C15.5464 6 16.8 7.22302 16.8 8.73171H21.4C21.7314 8.73171 22 8.99379 22 9.31707C22 9.64036 21.7314 9.90244 21.4 9.90244H20.3447L19.4071 19.3551C19.2583 20.8553 17.966 22 16.421 22H11.579C10.034 22 8.74172 20.8553 8.5929 19.3551L7.65526 9.90244H6.6C6.26863 9.90244 6 9.64036 6 9.31707C6 8.99379 6.26863 8.73171 6.6 8.73171H11.2ZM12.8 12.439C12.8 12.1157 12.5314 11.8537 12.2 11.8537C11.8686 11.8537 11.6 12.1157 11.6 12.439V18.2927C11.6 18.616 11.8686 18.878 12.2 18.878C12.5314 18.878 12.8 18.616 12.8 18.2927V12.439ZM15.8 11.8537C16.1314 11.8537 16.4 12.1157 16.4 12.439V18.2927C16.4 18.616 16.1314 18.878 15.8 18.878C15.4686 18.878 15.2 18.616 15.2 18.2927V12.439C15.2 12.1157 15.4686 11.8537 15.8 11.8537ZM9.78733 19.2423C9.87662 20.1424 10.652 20.8293 11.579 20.8293H16.421C17.348 20.8293 18.1234 20.1424 18.2126 19.2423L19.1391 9.90244H8.86086L9.78733 19.2423Z" fill="#4A5565"/>
</svg>
