<svg width="16" height="16" viewBox="0 0 16 16" fill="none" xmlns="http://www.w3.org/2000/svg">
<path d="M6.4 2.73171H9.6C9.6 1.8696 8.88368 1.17073 8 1.17073C7.11632 1.17073 6.4 1.8696 6.4 2.73171ZM5.2 2.73171C5.2 1.22302 6.4536 0 8 0C9.5464 0 10.8 1.22302 10.8 2.73171H15.4C15.7314 2.73171 16 2.99379 16 3.31707C16 3.64036 15.7314 3.90244 15.4 3.90244H14.3447L13.4071 13.3551C13.2583 14.8553 11.966 16 10.421 16H5.57895C4.03403 16 2.74172 14.8553 2.5929 13.3551L1.65526 3.90244H0.6C0.268632 3.90244 0 3.64036 0 3.31707C0 2.99379 0.268632 2.73171 0.6 2.73171H5.2ZM6.8 6.43902C6.8 6.11574 6.53136 5.85366 6.2 5.85366C5.86863 5.85366 5.6 6.11574 5.6 6.43902V12.2927C5.6 12.616 5.86863 12.878 6.2 12.878C6.53136 12.878 6.8 12.616 6.8 12.2927V6.43902ZM9.8 5.85366C10.1314 5.85366 10.4 6.11574 10.4 6.43902V12.2927C10.4 12.616 10.1314 12.878 9.8 12.878C9.46864 12.878 9.2 12.616 9.2 12.2927V6.43902C9.2 6.11574 9.46864 5.85366 9.8 5.85366ZM3.78733 13.2423C3.87662 14.1424 4.652 14.8293 5.57895 14.8293H10.421C11.348 14.8293 12.1234 14.1424 12.2126 13.2423L13.1391 3.90244H2.86086L3.78733 13.2423Z" fill="#025BCF"/>
</svg>
