<svg width="28" height="28" viewBox="0 0 28 28" fill="none" xmlns="http://www.w3.org/2000/svg">
<path d="M21.1615 6.83842C20.0435 5.72048 18.2308 5.72054 17.1129 6.83854L7.55283 16.399C7.22776 16.7241 6.99928 17.133 6.8928 17.5802L6.01633 21.2611C5.96807 21.4638 6.02842 21.6769 6.17574 21.8243C6.32308 21.9716 6.5363 22.032 6.73898 21.9836L10.42 21.1073C10.8674 21.0008 11.2764 20.7722 11.6015 20.447L19.5996 12.4486C20.1422 12.9956 20.1408 13.8789 19.5955 14.4243L18.1687 15.8509C17.9344 16.0852 17.9344 16.465 18.1687 16.6993C18.4031 16.9336 18.7829 16.9336 19.0172 16.6993L20.444 15.2727C21.4579 14.2588 21.4594 12.6158 20.4481 11.6001L21.1616 10.8865C22.2795 9.76863 22.2795 7.95627 21.1615 6.83842ZM17.9615 7.68696C18.6107 7.03759 19.6636 7.03756 20.313 7.68688C20.9623 8.33615 20.9623 9.38881 20.3131 10.0381L10.753 19.5986C10.5848 19.7668 10.3734 19.8849 10.142 19.94L7.40953 20.5905L8.06017 17.8581C8.11522 17.6269 8.23335 17.4155 8.4014 17.2474L17.9615 7.68696Z" fill="#4A5565"/>
</svg>
