<svg width="16" height="16" viewBox="0 0 16 16" fill="none" xmlns="http://www.w3.org/2000/svg">
<path d="M15.1615 0.838417C14.0435 -0.27952 12.2308 -0.279464 11.1129 0.838537L1.55283 10.399C1.22776 10.7241 0.999281 11.133 0.892801 11.5802L0.0163271 15.2611C-0.031929 15.4638 0.0284151 15.6769 0.175743 15.8243C0.32308 15.9716 0.536296 16.032 0.738984 15.9836L4.41999 15.1073C4.86735 15.0008 5.27638 14.7722 5.60154 14.447L13.5996 6.44864C14.1422 6.99564 14.1408 7.87894 13.5955 8.42426L12.1687 9.85088C11.9344 10.0852 11.9344 10.465 12.1687 10.6993C12.4031 10.9336 12.7829 10.9336 13.0172 10.6993L14.444 9.27268C15.4579 8.25883 15.4594 6.61575 14.4481 5.60012L15.1616 4.88654C16.2795 3.76863 16.2795 1.95627 15.1615 0.838417ZM11.9615 1.68696C12.6107 1.03759 13.6636 1.03756 14.313 1.68688C14.9623 2.33615 14.9623 3.38881 14.3131 4.03813L4.75296 13.5986C4.58484 13.7668 4.37335 13.8849 4.14205 13.94L1.40953 14.5905L2.06017 11.8581C2.11522 11.6269 2.23335 11.4155 2.4014 11.2474L11.9615 1.68696Z" fill="#025BCF"/>
</svg>
