<svg width="18" height="17" viewBox="0 0 18 17" fill="none" xmlns="http://www.w3.org/2000/svg">
<path d="M10.6666 3.99984V2.33317H7.33329V3.99984H10.6666ZM2.33329 5.6665V14.8332H15.6666V5.6665H2.33329ZM15.6666 3.99984C16.5916 3.99984 17.3333 4.7415 17.3333 5.6665V14.8332C17.3333 15.7582 16.5916 16.4998 15.6666 16.4998H2.33329C1.40829 16.4998 0.666626 15.7582 0.666626 14.8332L0.674959 5.6665C0.674959 4.7415 1.40829 3.99984 2.33329 3.99984H5.66663V2.33317C5.66663 1.40817 6.40829 0.666504 7.33329 0.666504H10.6666C11.5916 0.666504 12.3333 1.40817 12.3333 2.33317V3.99984H15.6666Z" fill="#9C9C9D"/>
</svg>
