<svg width="14" height="18" viewBox="0 0 14 18" fill="none" xmlns="http://www.w3.org/2000/svg">
<path d="M3.18513 12.5002H8.37032V14.1668H3.18513V12.5002ZM3.18513 9.16683H10.5925V10.8335H3.18513V9.16683ZM3.18513 5.8335H10.5925V7.50016H3.18513V5.8335ZM12.074 2.50016H8.97772C8.66661 1.5335 7.8518 0.833496 6.88883 0.833496C5.92587 0.833496 5.11106 1.5335 4.79995 2.50016H1.70365C1.59995 2.50016 1.50365 2.5085 1.40735 2.5335C1.11846 2.60016 0.859205 2.76683 0.659205 2.99183C0.525872 3.14183 0.414761 3.32516 0.340687 3.52516C0.266612 3.71683 0.222168 3.9335 0.222168 4.16683V15.8335C0.222168 16.0585 0.266612 16.2835 0.340687 16.4835C0.414761 16.6835 0.525872 16.8585 0.659205 17.0168C0.859205 17.2418 1.11846 17.4085 1.40735 17.4752C1.50365 17.4918 1.59995 17.5002 1.70365 17.5002H12.074C12.8888 17.5002 13.5555 16.7502 13.5555 15.8335V4.16683C13.5555 3.25016 12.8888 2.50016 12.074 2.50016ZM6.88883 2.29183C7.19254 2.29183 7.44439 2.57516 7.44439 2.91683C7.44439 3.2585 7.19254 3.54183 6.88883 3.54183C6.58513 3.54183 6.33328 3.2585 6.33328 2.91683C6.33328 2.57516 6.58513 2.29183 6.88883 2.29183ZM12.074 15.8335H1.70365V4.16683H12.074V15.8335Z" fill="#025BCF"/>
</svg>
