<svg width="16" height="16" viewBox="0 0 16 16" fill="none" xmlns="http://www.w3.org/2000/svg">
<path d="M1.33334 6.22223C1.33334 3.52216 3.52216 1.33334 6.22223 1.33334C8.92232 1.33334 11.1111 3.52216 11.1111 6.22223C11.1111 8.92232 8.92232 11.1111 6.22223 11.1111C3.52216 11.1111 1.33334 8.92232 1.33334 6.22223ZM6.22223 0C2.78579 0 0 2.78579 0 6.22223C0 9.65868 2.78579 12.4445 6.22223 12.4445C7.70028 12.4445 9.05797 11.9291 10.1254 11.0683L14.862 15.8047C15.1223 16.0651 15.5444 16.0651 15.8047 15.8047C16.0651 15.5444 16.0651 15.1223 15.8047 14.862L11.0683 10.1254C11.9291 9.05797 12.4445 7.70028 12.4445 6.22223C12.4445 2.78579 9.65868 0 6.22223 0Z" fill="#9F9FA9"/>
</svg>
