<svg width="16" height="10" viewBox="0 0 16 10" fill="none" xmlns="http://www.w3.org/2000/svg">
<path d="M8.00052 3.04628C9.81789 3.04628 11.2912 4.60294 11.2912 6.52313C11.2912 8.4434 9.81789 10 8.00052 10C6.18309 10 4.70979 8.4434 4.70979 6.52313C4.70979 4.60294 6.18309 3.04628 8.00052 3.04628ZM8.00052 4.35009C6.86465 4.35009 5.9438 5.323 5.9438 6.52313C5.9438 7.72326 6.86465 8.69617 8.00052 8.69617C9.13639 8.69617 10.0572 7.72326 10.0572 6.52313C10.0572 5.323 9.13639 4.35009 8.00052 4.35009ZM8.00052 0C11.7959 0 15.0723 2.73804 15.9814 6.57511C16.0641 6.92436 15.8632 7.27839 15.5327 7.36584C15.2021 7.45319 14.8671 7.24102 14.7843 6.89168C14.0119 3.63156 11.2265 1.30383 8.00052 1.30383C4.77309 1.30383 1.98682 3.63356 1.21577 6.89568C1.13321 7.24493 0.798263 7.45737 0.467654 7.37018C0.137045 7.28291 -0.0640332 6.92905 0.0185305 6.57972C0.926016 2.7404 4.20343 0 8.00052 0Z" fill="#6A6B6C"/>
</svg>
