<svg width="7" height="10" viewBox="0 0 7 10" fill="none" xmlns="http://www.w3.org/2000/svg">
<path d="M3.7703 0.115085C3.6996 0.041555 3.602 0 3.5 0C3.398 0 3.3004 0.041555 3.2297 0.115085L0.10469 3.36509C-0.0388599 3.51438 -0.0342051 3.75177 0.115085 3.89531C0.264375 4.03885 0.501766 4.0342 0.645316 3.88491L3.5 0.91604L6.35471 3.88491C6.49826 4.0342 6.73566 4.03885 6.88491 3.89531C7.03421 3.75177 7.03886 3.51438 6.89531 3.36509L3.7703 0.115085ZM3.7703 9.8849C3.6996 9.95845 3.602 10 3.5 10C3.398 10 3.3004 9.95845 3.2297 9.8849L0.10469 6.6349C-0.0388599 6.48565 -0.0342051 6.24825 0.115085 6.1047C0.264375 5.96115 0.501766 5.9658 0.645316 6.1151L3.5 9.08395L6.35471 6.1151C6.49826 5.9658 6.73566 5.96115 6.88491 6.1047C7.03421 6.24825 7.03886 6.48565 6.89531 6.6349L3.7703 9.8849Z" fill="#025BCF"/>
</svg>
