<svg width="18" height="16" viewBox="0 0 18 16" fill="none" xmlns="http://www.w3.org/2000/svg">
<path d="M3.14984 4.02941C3.14984 2.81114 4.15715 1.82353 5.39973 1.82353C6.64231 1.82353 7.64962 2.81114 7.64962 4.02941C7.64962 5.24769 6.64231 6.23529 5.39973 6.23529C4.15715 6.23529 3.14984 5.24769 3.14984 4.02941ZM5.39973 0.5C3.4116 0.5 1.79991 2.08017 1.79991 4.02941C1.79991 5.97862 3.4116 7.55882 5.39973 7.55882C7.38782 7.55882 8.99955 5.97862 8.99955 4.02941C8.99955 2.08017 7.38782 0.5 5.39973 0.5ZM12.1494 4.91176C12.1494 4.1808 12.7538 3.58824 13.4993 3.58824C14.2448 3.58824 14.8493 4.1808 14.8493 4.91176C14.8493 5.64273 14.2448 6.23529 13.4993 6.23529C12.7538 6.23529 12.1494 5.64273 12.1494 4.91176ZM13.4993 2.26471C12.0082 2.26471 10.7995 3.44984 10.7995 4.91176C10.7995 6.37374 12.0082 7.55882 13.4993 7.55882C14.9905 7.55882 16.1992 6.37374 16.1992 4.91176C16.1992 3.44984 14.9905 2.26471 13.4993 2.26471ZM11.023 13.7686C11.655 14.0205 12.4659 14.1765 13.5002 14.1765C15.5542 14.1765 16.7272 13.5612 17.3672 12.8019C17.6778 12.4333 17.8358 12.0612 17.916 11.776C17.956 11.6336 17.977 11.5118 17.9879 11.4209C17.9933 11.3754 17.9964 11.3371 17.998 11.3077C17.9988 11.2929 17.9994 11.2803 17.9996 11.2699L17.9999 11.2561L18 11.2505V11.248V11.2458C18 10.1842 17.1222 9.32353 16.0394 9.32353H10.9611C10.9363 9.32353 10.9118 9.32397 10.8874 9.32485C11.2419 9.68759 11.5003 10.1415 11.622 10.6471H16.0394C16.3738 10.6471 16.6454 10.9105 16.65 11.2373C16.6497 11.2423 16.6489 11.2519 16.6473 11.2657C16.6432 11.2989 16.6343 11.3543 16.6145 11.4246C16.5751 11.5649 16.4941 11.76 16.3266 11.9587C16.0105 12.3338 15.2711 12.8529 13.5002 12.8529C12.6182 12.8529 11.9921 12.7241 11.5466 12.5485C11.4502 12.9016 11.2901 13.3275 11.023 13.7686ZM2.0249 9.32353C0.906579 9.32353 0 10.2124 0 11.3088V11.5304V11.5314L9.01177e-06 11.5336L6.30824e-05 11.5392L0.000314983 11.5539C0.00057597 11.5652 0.00105294 11.5798 0.0018899 11.5974C0.00356381 11.6326 0.00670459 11.6799 0.0125813 11.7375C0.0243077 11.8524 0.0470946 12.0103 0.0914804 12.1968C0.179946 12.5685 0.356868 13.0651 0.712611 13.5633C1.44952 14.5955 2.85446 15.5 5.39973 15.5C7.94498 15.5 9.3499 14.5955 10.0869 13.5633C10.4426 13.0651 10.6196 12.5685 10.7079 12.1968C10.7524 12.0103 10.7752 11.8524 10.7869 11.7375C10.7928 11.6799 10.7959 11.6326 10.7976 11.5974C10.7984 11.5798 10.7989 11.5652 10.7991 11.5539L10.7994 11.5392L10.7995 11.5336V11.5314V11.3088C10.7995 10.2124 9.89285 9.32353 8.77456 9.32353H2.0249ZM1.35036 11.5358L1.34993 11.5247V11.3088C1.34993 10.9434 1.65213 10.6471 2.0249 10.6471H8.77456C9.14732 10.6471 9.44953 10.9434 9.44953 11.3088V11.5246L9.44908 11.5358C9.44845 11.549 9.44701 11.5729 9.44368 11.6057C9.43693 11.6716 9.4228 11.7723 9.39337 11.896C9.33415 12.1448 9.21581 12.4754 8.98092 12.8043C8.5367 13.4266 7.57924 14.1765 5.39973 14.1765C3.22024 14.1765 2.26279 13.4266 1.81851 12.8043C1.58366 12.4754 1.46529 12.1448 1.4061 11.896C1.37666 11.7723 1.36253 11.6716 1.35581 11.6057C1.35246 11.5729 1.35099 11.549 1.35036 11.5358Z" fill="#025BCF"/>
</svg>
