<svg width="20" height="20" viewBox="0 0 20 20" fill="none" xmlns="http://www.w3.org/2000/svg">
<g clip-path="url(#clip0_1527_1746)">
<path d="M17.4073 8.3335V5.00016C17.4073 4.07516 16.7407 3.3335 15.9259 3.3335H4.07401C3.2592 3.3335 2.59994 4.07516 2.59994 5.00016V8.3335C3.41475 8.3335 4.07401 9.08349 4.07401 10.0002C4.07401 10.9168 3.41475 11.6668 2.59253 11.6668V15.0002C2.59253 15.9168 3.2592 16.6668 4.07401 16.6668H15.9259C16.7407 16.6668 17.4073 15.9168 17.4073 15.0002V11.6668C16.5925 11.6668 15.9259 10.9168 15.9259 10.0002C15.9259 9.08349 16.5925 8.3335 17.4073 8.3335ZM15.9259 7.11683C15.0444 7.69183 14.4444 8.77516 14.4444 10.0002C14.4444 11.2252 15.0444 12.3085 15.9259 12.8835V15.0002H4.07401V12.8835C4.95549 12.3085 5.55549 11.2252 5.55549 10.0002C5.55549 8.76683 4.9629 7.69183 4.08142 7.11683L4.07401 5.00016H15.9259V7.11683ZM9.2592 12.5002H10.7407V14.1668H9.2592V12.5002ZM9.2592 9.16683H10.7407V10.8335H9.2592V9.16683ZM9.2592 5.8335H10.7407V7.50016H9.2592V5.8335Z" fill="#9C9C9D"/>
</g>
<defs>
<clipPath id="clip0_1527_1746">
<rect width="17.7778" height="20" fill="white" transform="translate(1.11108)"/>
</clipPath>
</defs>
</svg>
