<svg width="14" height="14" viewBox="0 0 14 14" fill="none" xmlns="http://www.w3.org/2000/svg">
<path d="M6.99724 0C7.30096 0 7.55205 0.225617 7.59181 0.518485L7.59733 0.599904L7.59829 6.40026H13.4001C13.7314 6.40026 14 6.66891 14 7.00028C14 7.30405 13.7743 7.5551 13.4815 7.59486L13.4001 7.6003H7.59829L7.59989 13.3998C7.59997 13.7312 7.33144 14 7.00012 14C6.6964 14 6.44531 13.7744 6.40555 13.4815L6.40003 13.4001L6.39843 7.6003H0.599928C0.268592 7.6003 0 7.33165 0 7.00028C0 6.69651 0.225693 6.44546 0.518522 6.4057L0.599928 6.40026H6.39843L6.39747 0.600144C6.39739 0.268763 6.66592 0 6.99724 0Z" fill="white"/>
</svg>
