<svg width="28" height="28" viewBox="0 0 28 28" fill="none" xmlns="http://www.w3.org/2000/svg">
<path d="M14.0005 12.0463C15.8179 12.0463 17.2912 13.6029 17.2912 15.5231C17.2912 17.4434 15.8179 19 14.0005 19C12.1831 19 10.7098 17.4434 10.7098 15.5231C10.7098 13.6029 12.1831 12.0463 14.0005 12.0463ZM14.0005 13.3501C12.8647 13.3501 11.9438 14.323 11.9438 15.5231C11.9438 16.7233 12.8647 17.6962 14.0005 17.6962C15.1364 17.6962 16.0572 16.7233 16.0572 15.5231C16.0572 14.323 15.1364 13.3501 14.0005 13.3501ZM14.0005 9C17.7959 9 21.0723 11.738 21.9814 15.5751C22.0641 15.9244 21.8632 16.2784 21.5327 16.3658C21.2021 16.4532 20.8671 16.241 20.7843 15.8917C20.0119 12.6316 17.2265 10.3038 14.0005 10.3038C10.7731 10.3038 7.98682 12.6336 7.21577 15.8957C7.13321 16.2449 6.79826 16.4574 6.46765 16.3702C6.13705 16.2829 5.93597 15.9291 6.01853 15.5797C6.92602 11.7404 10.2034 9 14.0005 9Z" fill="#4A5565"/>
</svg>
